<svg width="37" height="37" viewBox="0 0 37 37" fill="none" xmlns="http://www.w3.org/2000/svg">
<path d="M18.6826 5.43075C17.8416 5.58115 16.8033 6.15961 16.2633 6.78435C15.4535 7.73302 15.1212 8.80895 15.0174 10.8336L14.9447 12.1409H16.471H17.9869V11.0071C17.9973 9.29486 18.3088 8.7164 19.3367 8.51973C20.1777 8.35776 20.9668 8.85523 21.1953 9.69978C21.2576 9.94274 21.3095 10.8451 21.3095 11.6897C21.3095 12.9623 21.268 13.3325 21.1122 13.7259C20.8007 14.4663 20.5204 14.6167 19.264 14.663L18.1946 14.7092V16.2595V17.8098H18.7034C20.0843 17.8098 20.863 18.2378 21.1434 19.1634C21.351 19.8228 21.3822 23.1316 21.1849 23.8489C21.0291 24.4274 20.4788 24.9827 20.0324 24.9942C18.9733 25.0521 18.5061 24.8323 18.1946 24.115C18.0181 23.7216 17.9869 23.3977 17.9869 22.2292V20.8178H16.4606H14.9447L15.007 22.4027C15.1004 24.7166 15.4327 25.8388 16.3049 26.8106C17.8312 28.5228 21.2264 28.6501 22.8981 27.0536C23.5107 26.4635 23.8533 25.8851 24.1337 24.948C24.3206 24.3464 24.3621 23.872 24.4036 22.0904C24.4452 19.7765 24.3309 18.8626 23.8949 17.9023C23.6353 17.3354 22.8877 16.5025 22.4516 16.3058L22.1297 16.1554L22.6385 15.8314C23.926 15.01 24.4244 13.7143 24.4244 11.1344C24.4244 8.61228 23.7495 6.95789 22.3478 6.04392C21.5068 5.4886 19.8974 5.22251 18.6826 5.43075Z" fill="#111827"/>
<path d="M8.91219 6.40311C8.38265 7.62945 7.67661 8.1732 6.45141 8.28889L5.73499 8.3583V9.54993V10.7531H6.98095H8.22691V19.3722V27.9912H9.78436H11.3418V16.7691V5.54699H10.3139H9.27559L8.91219 6.40311Z" fill="#111827"/>
<path d="M30.1352 13.3561V15.4964L28.1936 15.5196L26.2416 15.5543L26.2105 16.7344L26.1793 17.926L28.1313 17.9491L30.0833 17.9838L30.1145 20.1473L30.1352 22.3223H31.2255H32.3157V20.1241V17.926H34.2365H36.1574V16.7112V15.4964H34.2365H32.3157V13.3561V11.2158H31.2255H30.1352V13.3561Z" fill="#111827"/>
</svg>
