<svg width="30" height="34" viewBox="0 0 30 34" fill="none" xmlns="http://www.w3.org/2000/svg">
<path d="M30 30V6.66667C30 4.82833 28.505 3.33333 26.6667 3.33333H23.3333V0H20V3.33333H10V0H6.66667V3.33333H3.33333C1.495 3.33333 0 4.82833 0 6.66667V30C0 31.8383 1.495 33.3333 3.33333 33.3333H26.6667C28.505 33.3333 30 31.8383 30 30ZM10 26.6667H6.66667V23.3333H10V26.6667ZM10 20H6.66667V16.6667H10V20ZM16.6667 26.6667H13.3333V23.3333H16.6667V26.6667ZM16.6667 20H13.3333V16.6667H16.6667V20ZM23.3333 26.6667H20V23.3333H23.3333V26.6667ZM23.3333 20H20V16.6667H23.3333V20ZM26.6667 11.6667H3.33333V8.33333H26.6667V11.6667Z" fill="#343434"/>
</svg>
