<svg width="37" height="37" viewBox="0 0 37 37" fill="none" xmlns="http://www.w3.org/2000/svg">
<circle cx="18.5" cy="18.5" r="18.5" fill="#111827"/>
<path d="M7.34138 8.36738C3.32163 10.4869 3.43126 16.4434 7.48756 18.3071C9.3878 19.1476 10.411 19.1476 12.3113 18.3071C16.3676 16.4434 16.4772 10.4869 12.4574 8.36738C11.7631 7.9654 10.5937 7.67306 9.89941 7.67306C9.20509 7.67306 8.03571 7.9654 7.34138 8.36738Z" fill="white"/>
<path d="M24.1512 8.36679C21.7028 9.64581 20.6065 12.8616 21.7394 15.4562C23.4934 19.5856 29.3403 19.951 31.606 16.0774C34.4199 11.2537 29.0845 5.73568 24.1512 8.36679Z" fill="white"/>
<path d="M16.2943 22.8381C15.4904 23.1304 14.7961 23.3862 14.7595 23.3862C14.723 23.3862 14.2479 24.0074 13.7363 24.7383C12.4938 26.5655 12.4573 29.3428 13.6632 31.0603C16.7694 35.6647 23.7857 33.5452 23.7857 28.0272C23.7857 25.6884 22.7625 24.044 20.7161 23.0573C18.9254 22.1803 18.2677 22.1437 16.2943 22.8381Z" fill="white"/>
</svg>
