<svg width="28" height="34" viewBox="0 0 28 34" fill="none" xmlns="http://www.w3.org/2000/svg">
<circle cx="13.9998" cy="12.0003" r="3.33333" stroke="#1B1B25" stroke-width="3"/>
<path d="M13.0333 33.359C13.316 33.559 13.6537 33.6664 14 33.6664C14.3463 33.6664 14.684 33.559 14.9667 33.359C15.4733 32.9973 27.3817 24.4007 27.3333 13.6673C27.3333 6.31565 21.3517 0.333984 14 0.333984C6.64832 0.333984 0.666651 6.31565 0.666651 13.6607C0.618317 24.4007 12.5267 32.9973 13.0333 33.359ZM14 3.66732C19.515 3.66732 24 8.15232 24 13.674C24.035 21.0707 16.6867 27.7123 14 29.8923C11.315 27.7123 3.96498 21.0707 3.99998 13.6673C3.99998 8.15232 8.48498 3.66732 14 3.66732Z" fill="black"/>
</svg>
