<svg width="18" height="19" viewBox="0 0 18 19" fill="none" xmlns="http://www.w3.org/2000/svg">
<path d="M12.122 11.2702L11.1435 12.2487C9.9665 11.6995 8.95527 11.0316 8.20822 10.2918C7.09223 9.18666 6.49549 7.99142 6.25128 7.35648L7.22978 6.37797C7.49997 6.10778 7.49997 5.66971 7.22978 5.39952L4.78365 2.95338C4.51346 2.68319 4.0725 2.67937 3.812 2.95892C2.32082 4.55914 0.488323 7.46413 5.7621 12.7379C11.0359 18.0117 13.9409 16.1792 15.5411 14.688C15.8206 14.4275 15.8168 13.9866 15.5466 13.7164L13.1005 11.2702C12.8303 11 12.3922 11 12.122 11.2702Z" stroke="#BE123C" stroke-width="1.125" stroke-linecap="round" stroke-linejoin="round"/>
</svg>
