<svg width="40" height="40" viewBox="0 0 40 40" fill="none" xmlns="http://www.w3.org/2000/svg">
<path d="M19.5116 3.82134C19.357 3.66635 19.1734 3.54341 18.9711 3.45961C18.7689 3.37581 18.5521 3.33278 18.3333 3.33301H9.99992C9.78103 3.33278 9.56425 3.37581 9.36203 3.45961C9.15982 3.54341 8.97615 3.66635 8.82159 3.82134L3.82159 8.82134C3.66652 8.97585 3.54354 9.15951 3.45973 9.36173C3.37592 9.56396 3.33294 9.78077 3.33325 9.99968V18.333C3.33325 18.7763 3.50825 19.1997 3.82159 19.5113L20.4883 36.178C20.6427 36.3333 20.8263 36.4566 21.0285 36.5407C21.2307 36.6248 21.4476 36.6681 21.6666 36.6681C21.8856 36.6681 22.1025 36.6248 22.3047 36.5407C22.5069 36.4566 22.6905 36.3333 22.8449 36.178L36.1783 22.8447C36.3332 22.69 36.4561 22.5064 36.5399 22.3042C36.6238 22.102 36.6669 21.8852 36.6669 21.6663C36.6669 21.4475 36.6238 21.2307 36.5399 21.0285C36.4561 20.8263 36.3332 20.6427 36.1783 20.488L19.5116 3.82134ZM21.6666 32.643L6.66659 17.643V10.6897L10.6899 6.66634H17.6433L32.6433 21.6663L21.6666 32.643Z" fill="#343434"/>
<path d="M13.9218 16.6668C15.4378 16.6668 16.6668 15.4378 16.6668 13.9218C16.6668 12.4057 15.4378 11.1768 13.9218 11.1768C12.4057 11.1768 11.1768 12.4057 11.1768 13.9218C11.1768 15.4378 12.4057 16.6668 13.9218 16.6668Z" fill="#343434"/>
</svg>
