<svg width="37" height="37" viewBox="0 0 37 37" fill="none" xmlns="http://www.w3.org/2000/svg">
<path d="M18.5 3.08301C9.99929 3.08301 3.08337 9.99892 3.08337 18.4997C3.08337 27.0004 9.99929 33.9163 18.5 33.9163C27.0008 33.9163 33.9167 27.0004 33.9167 18.4997C33.9167 9.99892 27.0008 3.08301 18.5 3.08301ZM18.5 30.833C11.6997 30.833 6.16671 25.3 6.16671 18.4997C6.16671 11.6994 11.6997 6.16634 18.5 6.16634C25.3003 6.16634 30.8334 11.6994 30.8334 18.4997C30.8334 25.3 25.3003 30.833 18.5 30.833Z" fill="#111827"/>
<path d="M20.0417 10.792H16.9584V20.042H26.2084V16.9587H20.0417V10.792Z" fill="#111827"/>
</svg>
