<svg width="17" height="17" viewBox="0 0 17 17" fill="none" xmlns="http://www.w3.org/2000/svg">
<path d="M9.96771 9.00032L15.9077 3.06032C16.1079 2.8265 16.2126 2.52574 16.2007 2.21814C16.1888 1.91054 16.0613 1.61874 15.8436 1.40107C15.6259 1.1834 15.3342 1.05588 15.0266 1.044C14.719 1.03212 14.4182 1.13675 14.1844 1.33698L8.24438 7.21587L2.26771 1.2392C2.0339 1.03897 1.73314 0.934343 1.42554 0.946224C1.11793 0.958105 0.826138 1.08562 0.608467 1.30329C0.390796 1.52096 0.263279 1.81276 0.251398 2.12036C0.239516 2.42797 0.344145 2.72873 0.544378 2.96254L6.50882 9.00032L0.6666 14.7692C0.538656 14.8788 0.434742 15.0136 0.36138 15.1652C0.288019 15.3169 0.246792 15.482 0.240291 15.6504C0.233789 15.8187 0.262152 15.9865 0.323599 16.1434C0.385045 16.3002 0.47825 16.4427 0.597361 16.5618C0.716473 16.6809 0.858919 16.7741 1.01576 16.8355C1.1726 16.897 1.34045 16.9253 1.50878 16.9188C1.6771 16.9123 1.84226 16.8711 1.9939 16.7978C2.14553 16.7244 2.28036 16.6205 2.38993 16.4925L8.21993 10.6625L14.0133 16.4559C14.2471 16.6561 14.5478 16.7607 14.8554 16.7489C15.163 16.737 15.4548 16.6095 15.6725 16.3918C15.8902 16.1741 16.0177 15.8823 16.0296 15.5747C16.0415 15.2671 15.9368 14.9664 15.7366 14.7325L9.96771 9.00032Z" fill="#ACACAC"/>
</svg>
