<svg width="24" height="22" viewBox="0 0 24 22" fill="none" xmlns="http://www.w3.org/2000/svg">
<path d="M22.9024 5.21635C22.6407 4.23093 21.8696 3.45485 20.8906 3.19147C19.116 2.71289 12.0001 2.71289 12.0001 2.71289C12.0001 2.71289 4.88428 2.71289 3.10965 3.19147C2.13061 3.45489 1.35952 4.23093 1.09782 5.21635C0.622314 7.00247 0.622314 10.7291 0.622314 10.7291C0.622314 10.7291 0.622314 14.4556 1.09782 16.2418C1.35952 17.2272 2.13061 17.9709 3.10965 18.2343C4.88428 18.7129 12.0001 18.7129 12.0001 18.7129C12.0001 18.7129 19.116 18.7129 20.8906 18.2343C21.8696 17.9709 22.6407 17.2272 22.9024 16.2418C23.3779 14.4556 23.3779 10.7291 23.3779 10.7291C23.3779 10.7291 23.3779 7.00247 22.9024 5.21635ZM9.67283 14.1125V7.3456L15.6203 10.7291L9.67283 14.1125Z" fill="white"/>
</svg>
